<?xml version="1.0" encoding="utf-8"?>
<!-- Generator: Adobe Illustrator 19.2.1, SVG Export Plug-In . SVG Version: 6.00 Build 0)  -->
<svg version="1.1" id="Layer_2" xmlns="http://www.w3.org/2000/svg" xmlns:xlink="http://www.w3.org/1999/xlink" x="0px" y="0px"
	 viewBox="0 0 506.3 133" style="enable-background:new 0 0 506.3 133;" xml:space="preserve">
<style type="text/css">
	.st0{fill:#323940;}
	.st1{fill:#FBBC14;}
	.st2{fill:#2EB892;}
</style>
<g>
	<g>
		<g>
			<path class="st0" d="M321,120.7h-16.2V91.8c0-9.3-5.4-14-12-14c-7.2,0-13.9,5.8-13.9,14v28.9h-16.3V35.3h16.3v31.6
				c3.1-3.8,10-5.4,15.2-5.4c15.8,0,26.8,13.5,26.8,30.3v28.9H321z"/>
		</g>
	</g>
	<g>
		<path class="st0" d="M379.1,91.5c0,16.5-13.9,30.1-30.5,30.1s-30-13.6-30-30.1c0-16.7,13.4-30.3,30-30.3S379.1,74.7,379.1,91.5z
			 M362.5,91.5c0-8.1-6-14-13.9-14c-7.4,0-13.5,5.8-13.5,14c0,8.3,6.1,14,13.5,14C356.5,105.5,362.5,99.7,362.5,91.5z"/>
	</g>
	<g>
		<path class="st0" d="M438.5,91.5c0,16.5-13.9,30.1-30.5,30.1s-30-13.6-30-30.1c0-16.7,13.4-30.3,30-30.3S438.5,74.7,438.5,91.5z
			 M421.9,91.5c0-8.1-6-14-13.9-14c-7.4,0-13.5,5.8-13.5,14c0,8.3,6.1,14,13.5,14C415.9,105.5,421.9,99.7,421.9,91.5z"/>
	</g>
	<g>
		<path class="st0" d="M434.7,78.8c0-10.1,10.4-17.5,19-17.5c7.4,0,13.2,3.1,17.3,9.1l-11.7,8.5c-1.5-1.4-3.1-2.4-5.3-2.4
			c-2.2,0-3.4,1.3-3.4,3c0,1.9,1.4,3.1,6.2,3.7c10.7,1.4,18.8,6.9,18.8,18.8c0,11.8-9.7,19.8-22.2,19.8c-8.6,0-14.9-3-19.9-8.7
			l13.8-10c1.7,1.8,3.8,2.5,6.3,2.5c3,0,4.4-1.7,4.4-3.9c0-2.3-1.5-3.9-5.2-4.5C442.1,95.6,434.7,88.6,434.7,78.8z"/>
		<path class="st0" d="M492.5,77.5V96c0,6.5,6,9.5,13.4,9.5v16.2c-17.3,0-29.7-10.2-29.7-25.2v-19h-8.7v-15h8.7v-7.6l16.3-11.8v19.4
			h13.8v15H492.5z"/>
	</g>
</g>
<g>
	<g>
		<g>
			<path class="st1" d="M156.1,58.4l1.3,12.4c0,0,15.5-4.2,12.3-18.4C165.4,54.2,161.3,56.6,156.1,58.4L156.1,58.4z"/>
			<path class="st1" d="M147.9,30.8c-14.1-4.8-19.1,10.8-19.1,10.8l13.2,2.5C143.9,39.6,145.6,35.2,147.9,30.8z"/>
			<path class="st1" d="M154.3,56.7c11.8-4.9,21.8-8.9,34-20.9c16.4-16.2,11.8-35.2,11.8-35.2s-19-4.8-35.4,11.4
				c-12.2,12.1-16.1,22-21.2,33.7C147.1,49.3,150.8,53.2,154.3,56.7z M174.5,15.9c2.8-2.8,7.4-2.8,10.2,0.1
				c2.8,2.8,2.8,7.4-0.1,10.2c-2.8,2.8-7.4,2.8-10.2-0.1C171.6,23.2,171.6,18.7,174.5,15.9z"/>
		</g>
	</g>
	<path class="st2" d="M199.1,25c-2.1,3.9-4.9,7.9-8.8,11.7c-2.7,2.7-5.3,5-7.9,7c2.1-0.5,4.3-0.7,6.4-0.7
		c20.9,0,37.9,15.9,37.9,35.5s-17,35.5-37.9,35.5c-18.9,0-41.6-22.1-52.9-35.5c0.3-0.4,0.6-0.8,0.9-1.1c0.1-0.1,0.1-0.2,0.1-0.2l0,0
		c4.1-4.9,10.7-11.9,17-17.4l-13.6-14c-6.3,5.5-12.8,12.3-16.9,17c-12.7-14.6-37.9-38.7-65.3-38.7C26.1,24.1,0,48.5,0,78.5
		s26.1,54.4,58.1,54.4c26.1,0,50.1-21.7,63.3-36.4l0,0c0.7-0.8,1.3-1.7,2-2.5l0,0c13,14.7,38.6,39,65.3,39
		c32.1,0,58.1-24.4,58.1-54.4C246.9,51.8,226.2,29.5,199.1,25z M58.1,114c-20.9,0-37.9-15.9-37.9-35.5S37.2,43,58.1,43
		c19.5,0,41.9,22.2,52.8,35.5C100,91.8,77.6,114,58.1,114z M152.2,60.1c-2-2-4-4.1-6-6.1L152.2,60.1z M128.3,71.5
		c0,0,4.9-14.8,7.6-17.5s6.9-2.7,9.6-0.1c2.7,2.6,2.7,6.9,0.1,9.6C142.9,66.1,128.3,71.5,128.3,71.5z"/>
</g>
</svg>
