<?xml version="1.0" encoding="utf-8"?>
<!-- Generator: Adobe Illustrator 19.2.1, SVG Export Plug-In . SVG Version: 6.00 Build 0)  -->
<svg version="1.1" xmlns="http://www.w3.org/2000/svg" xmlns:xlink="http://www.w3.org/1999/xlink" x="0px" y="0px"
	 viewBox="0 0 73 64" style="enable-background:new 0 0 73 64;" xml:space="preserve">
<style type="text/css">
	.st0{fill:none;stroke:#FA8C28;stroke-width:1.5;stroke-miterlimit:10;}
	.st1{fill:#D74119;}
	.st2{fill:none;stroke:#D74119;stroke-width:1.5;stroke-miterlimit:10;}
	.st3{fill:#FA8C28;}
	.st4{fill:none;stroke:#FA8C28;stroke-width:1.5;stroke-linejoin:round;stroke-miterlimit:10;}
	.st5{fill:none;stroke:#D4461E;stroke-width:1.5;stroke-linejoin:round;stroke-miterlimit:10;}
	.st6{fill:#D4461E;}
	.st7{fill:none;stroke:#D44B27;stroke-width:1.5;stroke-miterlimit:10;}
	.st8{fill:#D44B27;}
	.st9{fill:none;stroke:#FA8C28;stroke-width:1.5;stroke-linecap:round;stroke-miterlimit:10;}
</style>
<g id="Layer_1">
	<line class="st9" x1="48" y1="51" x2="33" y2="51"/>
	<line class="st9" x1="27.5" y1="28.9" x2="20.4" y2="40.8"/>
	<line class="st9" x1="43.6" y1="23.2" x2="51.3" y2="35.3"/>
	<g>
		<path class="st8" d="M36.5,1.5c6.2,0,11.3,5.1,11.3,11.3s-5.1,11.3-11.3,11.3S25.2,19,25.2,12.8S30.3,1.5,36.5,1.5 M36.5,0
			c-7.1,0-12.8,5.7-12.8,12.8s5.7,12.8,12.8,12.8s12.8-5.7,12.8-12.8S43.6,0,36.5,0L36.5,0z"/>
	</g>
	<g>
		<path class="st8" d="M12.8,39.9c6.2,0,11.3,5.1,11.3,11.3S19,62.5,12.8,62.5S1.5,57.4,1.5,51.2S6.6,39.9,12.8,39.9 M12.8,38.4
			C5.7,38.4,0,44.2,0,51.2S5.7,64,12.8,64c7.1,0,12.8-5.7,12.8-12.8S19.8,38.4,12.8,38.4L12.8,38.4z"/>
	</g>
	<g>
		<path class="st8" d="M60.2,39.9c6.2,0,11.3,5.1,11.3,11.3s-5.1,11.3-11.3,11.3c-6.2,0-11.3-5.1-11.3-11.3S54,39.9,60.2,39.9
			 M60.2,38.4c-7.1,0-12.8,5.7-12.8,12.8S53.2,64,60.2,64C67.3,64,73,58.3,73,51.2S67.3,38.4,60.2,38.4L60.2,38.4z"/>
	</g>
</g>
<g id="Layer_2">
</g>
</svg>
