<?xml version="1.0" encoding="utf-8"?>
<!-- Generator: Adobe Illustrator 19.2.1, SVG Export Plug-In . SVG Version: 6.00 Build 0)  -->
<svg version="1.1" xmlns="http://www.w3.org/2000/svg" xmlns:xlink="http://www.w3.org/1999/xlink" x="0px" y="0px"
	 viewBox="0 0 80 64" style="enable-background:new 0 0 80 64;" xml:space="preserve">
<style type="text/css">
	.st0{fill:none;stroke:#FA8C28;stroke-width:1.5;stroke-miterlimit:10;}
	.st1{fill:#D74119;}
	.st2{fill:none;stroke:#D74119;stroke-width:1.5;stroke-miterlimit:10;}
	.st3{fill:#FA8C28;}
	.st4{fill:none;stroke:#FA8C28;stroke-width:1.5;stroke-linejoin:round;stroke-miterlimit:10;}
	.st5{fill:none;stroke:#D4461E;stroke-width:1.5;stroke-linejoin:round;stroke-miterlimit:10;}
	.st6{fill:#D4461E;}
	.st7{fill:none;stroke:#D44B27;stroke-width:1.5;stroke-miterlimit:10;}
	.st8{fill:#D44B27;}
	.st9{fill:none;stroke:#FA8C28;stroke-width:1.5;stroke-linecap:round;stroke-miterlimit:10;}
</style>
<g id="Layer_1">
	<g>
		<path class="st1" d="M78.5,1.5v15h-77v-15H78.5 M80,0H0v18h80V0L80,0z"/>
	</g>
	<g>
		<path class="st3" d="M64.5,23.5v15h-63v-15H64.5 M66,22H0v18h66V22L66,22z"/>
	</g>
	<g>
		<path class="st3" d="M38.5,47.5v15h-37v-15H38.5 M40,46H0v18h40V46L40,46z"/>
	</g>
	<line class="st2" x1="1" y1="17" x2="17.5" y2="0.5"/>
	<line class="st2" x1="9" y1="17" x2="25.5" y2="0.5"/>
	<line class="st2" x1="17" y1="17" x2="33.5" y2="0.5"/>
	<line class="st2" x1="25" y1="17" x2="41.5" y2="0.5"/>
	<line class="st2" x1="33" y1="17" x2="49.5" y2="0.5"/>
	<line class="st2" x1="41" y1="17" x2="57.5" y2="0.5"/>
	<line class="st2" x1="49" y1="17" x2="65.5" y2="0.5"/>
	<line class="st2" x1="57" y1="17" x2="73.5" y2="0.5"/>
	<line class="st2" x1="65" y1="17" x2="79.3" y2="2.7"/>
	<line class="st2" x1="73" y1="17" x2="79.3" y2="10.7"/>
	<line class="st2" x1="0.8" y1="9.2" x2="9.5" y2="0.5"/>
</g>
<g id="Layer_2">
</g>
</svg>
