<svg xmlns="http://www.w3.org/2000/svg" width="183.966" height="156.393" viewBox="0 0 183.966 156.393">
    <path fill="#DAE0E5" d="M58.833 156.393c-14.877 0-28.762-.847-39.097-2.385C6.087 151.977 0 149.032 0 144.461c0-.342.07-.68.206-.993l6.37-14.715c.281-13.602 11.361-24.597 24.995-24.74l13.165-2.811V90.608c-7.89-5.168-15.019-14.359-19.917-25.661-.3.046-.605.069-.911.069-4.732 0-9.345-5.587-11.218-13.587-.905-3.865-.999-7.717-.265-10.845.877-3.733 2.851-6.139 5.56-6.773a6.082 6.082 0 0 1 1.687-.143C22.854 14.557 39.734 0 59.393 0c19.863 0 36.549 14.311 39.729 33.655 2.715.509 4.795 2.806 5.856 6.473.894 3.086.996 6.937.289 10.843-1.539 8.516-6.408 14.617-11.367 14.124-5.152 11.829-12.665 21.225-20.966 26.216v9.863l14.239 2.839c13.669.135 24.775 11.178 25.014 24.822l5.33 14.777c.098.272.148.56.148.849 0 4.571-6.087 7.516-19.736 9.547-10.335 1.538-24.22 2.385-39.096 2.385zM5.156 144.617c2.375 2.931 21.629 6.775 53.676 6.775 32.223 0 51.513-3.888 53.714-6.823l-5.208-14.438a2.508 2.508 0 0 1-.148-.849c0-11.178-9.093-20.271-20.271-20.271a2.59 2.59 0 0 1-.489-.048l-16.486-3.287a2.5 2.5 0 0 1-2.011-2.452V89.859c0-.919.504-1.764 1.313-2.2 8.191-4.421 16.013-14.363 20.921-26.596a2.5 2.5 0 0 1 3.718-1.142c.15.101.286.163.404.184.057.011.11.016.163.016 1.703 0 4.769-3.82 5.894-10.041.564-3.116.501-6.236-.172-8.563-.481-1.661-1.26-2.818-1.986-2.95-.162-.032-.311-.002-.519.061a2.502 2.502 0 0 1-3.208-2.129C92.553 18.542 77.476 5 59.393 5 41.266 5 25.836 19.13 24.265 37.168a2.502 2.502 0 0 1-3.814 1.905c-.529-.33-.983-.472-1.327-.392-.717.168-1.436 1.363-1.832 3.047-.554 2.358-.457 5.479.265 8.562 1.411 6.027 4.649 9.728 6.35 9.728a.884.884 0 0 0 .208-.023c.129-.03.281-.116.451-.258a2.497 2.497 0 0 1 3.92 1.005c4.666 11.794 12.153 21.64 20.028 26.337a2.5 2.5 0 0 1 1.219 2.147v14a2.5 2.5 0 0 1-1.978 2.445l-15.395 3.287a2.542 2.542 0 0 1-.522.055c-11.177 0-20.271 9.094-20.271 20.271 0 .342-.07.68-.206.993l-6.205 14.34z"/>
    <path fill="#DAE0E5" d="M108.562 105.218a2.5 2.5 0 0 1-.519-4.946l10.866-2.317V89.67c-5.39-3.597-10.452-9.532-14.364-16.875a2.5 2.5 0 0 1 4.412-2.352c3.784 7.103 8.661 12.679 13.732 15.702a2.501 2.501 0 0 1 1.22 2.147v11.684a2.5 2.5 0 0 1-1.979 2.445l-12.845 2.74c-.175.038-.35.057-.523.057z"/>
    <path fill="#DAE0E5" d="M134.044 143.853c-.659 0-1.218-.002-1.665-.005a2.5 2.5 0 0 1-2.484-2.517c.01-1.381 1.136-2.472 2.517-2.483 26.962.178 43.797-2.931 46.388-5.387l-4.253-11.792a2.508 2.508 0 0 1-.148-.849c0-9.1-7.401-16.502-16.499-16.502a2.58 2.58 0 0 1-.488-.048l-13.756-2.738a2.501 2.501 0 0 1-2.012-2.452V87.926c0-.919.504-1.765 1.313-2.2 6.75-3.641 13.206-11.857 17.268-21.98a2.503 2.503 0 0 1 1.591-1.461 2.503 2.503 0 0 1 2.135.324.561.561 0 0 0 .177.086c.286.063 1.084-.326 2.005-1.564 1.169-1.571 2.103-3.929 2.563-6.468.459-2.539.41-5.074-.134-6.955-.429-1.482-1.045-2.117-1.333-2.169a.654.654 0 0 0-.236.038 2.5 2.5 0 0 1-3.212-2.128c-1.57-14.771-13.973-25.911-28.849-25.911a28.99 28.99 0 0 0-19.02 7.107 2.5 2.5 0 0 1-3.28-3.773 33.99 33.99 0 0 1 22.3-8.334c16.682 0 30.711 11.951 33.51 28.149 2.288.557 4.028 2.541 4.922 5.63.763 2.636.852 5.916.251 9.236-.601 3.32-1.834 6.361-3.471 8.563-1.804 2.424-3.979 3.671-6.159 3.583-4.289 9.728-10.486 17.476-17.342 21.672v7.658l11.51 2.292c11.588.134 21.001 9.485 21.24 21.05l4.424 12.266c.098.272.148.56.148.849 0 .849-.261 2.12-1.503 3.354-6.545 6.502-38.555 7.013-48.418 7.013z"/>
</svg>
