<?xml version="1.0" encoding="utf-8"?>
<!-- Generator: Adobe Illustrator 19.2.1, SVG Export Plug-In . SVG Version: 6.00 Build 0)  -->
<svg version="1.1" xmlns="http://www.w3.org/2000/svg" xmlns:xlink="http://www.w3.org/1999/xlink" x="0px" y="0px"
	 viewBox="0 0 58 64" style="enable-background:new 0 0 58 64;" xml:space="preserve">
<style type="text/css">
	.st0{fill:none;stroke:#FA8C28;stroke-width:1.5;stroke-miterlimit:10;}
	.st1{fill:#D74119;}
	.st2{fill:none;stroke:#D74119;stroke-width:1.5;stroke-miterlimit:10;}
	.st3{fill:#FA8C28;}
	.st4{fill:none;stroke:#FA8C28;stroke-width:1.5;stroke-linejoin:round;stroke-miterlimit:10;}
	.st5{fill:none;stroke:#D4461E;stroke-width:1.5;stroke-linejoin:round;stroke-miterlimit:10;}
	.st6{fill:#D4461E;}
	.st7{fill:none;stroke:#D44B27;stroke-width:1.5;stroke-miterlimit:10;}
	.st8{fill:#D44B27;}
	.st9{fill:none;stroke:#FA8C28;stroke-width:1.5;stroke-linecap:round;stroke-miterlimit:10;}
</style>
<g id="Layer_1">
	<path class="st0" d="M45.3,5c4.4,0,8,3.5,8,7.8c0,4.3-3.6,7.8-8,7.8"/>
	<path class="st0" d="M45.3,24.5h8.2c2.1,0,3.8,1.5,3.8,3.4v14.5c0,1.9-1.7,3.4-3.8,3.4h-0.2l-2.6,17.3h-5.3"/>
	<g>
		<path class="st8" d="M29.7,1.5c4,0,7.3,3.3,7.3,7.3c0,4-3.3,7.3-7.3,7.3s-7.3-3.3-7.3-7.3C22.4,4.8,25.7,1.5,29.7,1.5 M29.7,0
			c-4.9,0-8.8,3.9-8.8,8.8c0,4.9,3.9,8.8,8.8,8.8c4.9,0,8.8-3.9,8.8-8.8C38.5,3.9,34.6,0,29.7,0L29.7,0z"/>
	</g>
	<g>
		<path class="st8" d="M36.8,22.5c1.2,0,2.2,1,2.2,2.3v16.2c0,1.3-1,2.3-2.2,2.3h-0.2h-1.3l-0.2,1.3l-2.4,17.9h-7.6l-2.4-17.9
			l-0.2-1.3h-1.3h-0.2c-1.2,0-2.2-1-2.2-2.3V24.8c0-1.3,1-2.3,2.2-2.3H36.8 M36.8,21H21.2c-2,0-3.7,1.7-3.7,3.8v16.2
			c0,2.1,1.6,3.8,3.7,3.8h0.2L23.9,64h10.2l2.5-19.2h0.2c2,0,3.7-1.7,3.7-3.8V24.8C40.5,22.7,38.8,21,36.8,21L36.8,21z"/>
	</g>
	<path class="st0" d="M12.8,5c-4.4,0-7.9,3.5-7.9,7.8c0,4.3,3.5,7.8,7.9,7.8"/>
	<path class="st0" d="M12.8,24.5H4.6c-2.1,0-3.8,1.5-3.8,3.4v14.5c0,1.9,1.7,3.4,3.8,3.4h0.2l2.6,17.3h5.3"/>
</g>
<g id="Layer_2">
</g>
</svg>
