<?xml version="1.0" encoding="utf-8"?>
<!-- Generator: Adobe Illustrator 19.2.1, SVG Export Plug-In . SVG Version: 6.00 Build 0)  -->
<svg version="1.1" xmlns="http://www.w3.org/2000/svg" xmlns:xlink="http://www.w3.org/1999/xlink" x="0px" y="0px"
	 viewBox="0 0 48 64" style="enable-background:new 0 0 48 64;" xml:space="preserve">
<style type="text/css">
	.st0{fill:none;stroke:#FA8C28;stroke-width:1.5;stroke-miterlimit:10;}
	.st1{fill:#D74119;}
	.st2{fill:none;stroke:#D74119;stroke-width:1.5;stroke-miterlimit:10;}
	.st3{fill:#FA8C28;}
	.st4{fill:none;stroke:#FA8C28;stroke-width:1.5;stroke-linejoin:round;stroke-miterlimit:10;}
	.st5{fill:none;stroke:#D4461E;stroke-width:1.5;stroke-linejoin:round;stroke-miterlimit:10;}
	.st6{fill:#D4461E;}
	.st7{fill:none;stroke:#D44B27;stroke-width:1.5;stroke-miterlimit:10;}
	.st8{fill:#D44B27;}
	.st9{fill:none;stroke:#FA8C28;stroke-width:1.5;stroke-linecap:round;stroke-miterlimit:10;}
</style>
<g id="Layer_1">
	<line class="st0" x1="12" y1="52.3" x2="16.1" y2="46.9"/>
	<line class="st0" x1="21.5" y1="45.5" x2="26.7" y2="48.1"/>
	<line class="st0" x1="31.9" y1="46.1" x2="36.3" y2="41.2"/>
	<g>
		<path class="st1" d="M31.4,1.5l15.1,15.1v45.9h-45v-61H31.4 M32,0H0v64h48V16L32,0L32,0z"/>
	</g>
	<path class="st2" d="M47.3,16.5H34.1c-1.3,0-2.4-1.1-2.4-2.4V0.9"/>
	<circle class="st2" cx="10.2" cy="54.3" r="3"/>
	<circle class="st2" cx="18.6" cy="44.7" r="3"/>
	<circle class="st2" cx="29.8" cy="48.3" r="3"/>
	<circle class="st2" cx="38.1" cy="38.7" r="3"/>
	<line class="st0" x1="7.2" y1="27.2" x2="28" y2="27.2"/>
	<line class="st0" x1="7.2" y1="32" x2="28" y2="32"/>
</g>
<g id="Layer_2">
</g>
</svg>
