<svg xmlns="http://www.w3.org/2000/svg" width="176.264" height="175.938" viewBox="0 0 176.264 175.938">
    <path fill="#D9E0E6" d="M73.109 98.156c-2.531.099-4.671-1.881-4.77-4.413s1.881-4.671 4.412-4.77c2.53-.098 4.67 1.882 4.769 4.413s-1.88 4.672-4.411 4.77zm-.194-4.996a.408.408 0 0 0-.392.421.406.406 0 1 0 .813-.032.404.404 0 0 0-.421-.389zm-.352-9.042a2.5 2.5 0 0 1-2.596-2.401c-.299-7.688 4.782-11.631 8.865-14.8 4.042-3.138 6.513-5.263 6.357-9.252-.115-2.943-2.743-8.417-11.875-8.061-8.968.349-11.63 9.299-11.739 9.679a2.502 2.502 0 0 1-3.083 1.724 2.493 2.493 0 0 1-1.731-3.069c1.23-4.438 6.233-12.936 16.359-13.33 12.135-.472 16.854 7.434 17.065 12.863.263 6.759-4.28 10.285-8.287 13.396-3.828 2.971-7.134 5.537-6.935 10.656a2.498 2.498 0 0 1-2.4 2.595z"/>
    <g fill="#D9E0E6">
        <path d="M159.918 175.938a15.414 15.414 0 0 1-10.972-4.545l-36.063-36.062c-28.813 18.271-66.797 14.158-91.076-10.122-28.597-28.599-28.597-75.13 0-103.727C35.661 7.63 54.08 0 73.671 0c19.592 0 38.011 7.63 51.863 21.483 24.77 24.77 28.551 63.799 8.991 92.804a2.501 2.501 0 0 1-3.47.675 2.498 2.498 0 0 1-.675-3.47c18.224-27.025 14.698-63.393-8.382-86.474C109.09 12.109 91.927 5 73.671 5c-18.255 0-35.419 7.109-48.328 20.019-26.647 26.647-26.646 70.007 0 96.656 23.079 23.08 59.446 26.606 86.476 8.38a2.501 2.501 0 0 1 3.165.306l37.499 37.498a10.448 10.448 0 0 0 7.436 3.08c2.81 0 5.449-1.094 7.435-3.08l.833-.831c1.984-1.985 3.078-4.626 3.078-7.435s-1.094-5.449-3.079-7.436l-26.714-26.715a2.498 2.498 0 0 1 0-3.535 2.498 2.498 0 0 1 3.535 0l26.714 26.715c2.931 2.93 4.544 6.826 4.544 10.971s-1.613 8.041-4.544 10.971l-.832.831a15.415 15.415 0 0 1-10.971 4.543z"/>
        <path d="M73.671 128.686c-14.782 0-28.679-5.756-39.131-16.208-21.577-21.577-21.577-56.685 0-78.262 10.452-10.452 24.349-16.208 39.131-16.208s28.679 5.756 39.131 16.208c21.577 21.577 21.577 56.685 0 78.262-10.452 10.452-24.349 16.208-39.131 16.208zm0-105.678c-13.446 0-26.088 5.235-35.596 14.743-19.627 19.628-19.627 51.563 0 71.191 9.508 9.508 22.149 14.743 35.596 14.743s26.088-5.235 35.596-14.743c19.627-19.628 19.627-51.563 0-71.191-9.508-9.508-22.15-14.743-35.596-14.743z"/>
    </g>
</svg>
