<svg xmlns="http://www.w3.org/2000/svg" version="1.1" x="0" y="0" viewBox="0 0 38 38" xml:space="preserve"><style type="text/css">
	.st0{fill:#87898F;}
</style><path class="st0" d="M18.9 0c-10.5 0-19 8.5-19 19s8.5 19 19 19 19-8.5 19-19S29.4 0 18.9 0zM26.1 15.8c0 0.2 0 0.3 0 0.5 0 4.7-3.7 10.1-10.5 10.1 -2.1 0-4-0.6-5.7-1.6 0.3 0 0.6 0 0.9 0 1.7 0 3.3-0.6 4.6-1.5 -1.6 0-3-1.1-3.4-2.5 0.2 0 0.5 0.1 0.7 0.1 0.3 0 0.8 0 1.1-0.1C12.1 20.5 11 19 11 17.3v0c0 0.3 0.9 0.4 1.5 0.4 -1-0.6-1.7-1.7-1.7-2.9 0-0.6 0.1-1.3 0.5-1.8 1.8 2.1 4.5 3.5 7.6 3.7 -0.1-0.3-0.1-0.5-0.1-0.8 0-2 1.6-3.5 3.7-3.5 1.1 0 2 0.4 2.7 1.1 0.8-0.2 1.6-0.5 2.3-0.9 -0.3 0.8-0.9 1.5-1.6 2 0.7-0.1 1.5-0.3 2.1-0.6C27.5 14.7 26.8 15.3 26.1 15.8z"/></svg>