<?xml version="1.0" encoding="utf-8"?>
<!-- Generator: Adobe Illustrator 19.2.1, SVG Export Plug-In . SVG Version: 6.00 Build 0)  -->
<svg version="1.1" xmlns="http://www.w3.org/2000/svg" xmlns:xlink="http://www.w3.org/1999/xlink" x="0px" y="0px"
	 viewBox="0 0 80 64" style="enable-background:new 0 0 80 64;" xml:space="preserve">
<style type="text/css">
	.st0{fill:none;stroke:#FA8C28;stroke-width:1.5;stroke-miterlimit:10;}
	.st1{fill:#D74119;}
	.st2{fill:none;stroke:#D74119;stroke-width:1.5;stroke-miterlimit:10;}
	.st3{fill:#FA8C28;}
	.st4{fill:none;stroke:#FA8C28;stroke-width:1.5;stroke-linejoin:round;stroke-miterlimit:10;}
	.st5{fill:none;stroke:#D4461E;stroke-width:1.5;stroke-linejoin:round;stroke-miterlimit:10;}
	.st6{fill:#D4461E;}
	.st7{fill:none;stroke:#D44B27;stroke-width:1.5;stroke-miterlimit:10;}
	.st8{fill:#D44B27;}
	.st9{fill:none;stroke:#FA8C28;stroke-width:1.5;stroke-linecap:round;stroke-miterlimit:10;}
</style>
<g id="Layer_1">
	<g>
		<path class="st3" d="M42,1.5c0.5,0,1,0.4,1,1v27.3c0,0.5-0.4,1-1,1H17.4c-0.4,0-0.8,0.2-1.1,0.4l-7,7v-5.9c0-0.8-0.7-1.5-1.5-1.5
			H2.4c-0.5,0-1-0.4-1-1V2.5c0-0.5,0.4-1,1-1H42 M42,0H2.4C1,0-0.1,1.1-0.1,2.5v27.3c0,1.4,1.1,2.5,2.5,2.5h5.5v9.5l9.5-9.5H42
			c1.4,0,2.5-1.1,2.5-2.5V2.5C44.4,1.1,43.3,0,42,0L42,0z"/>
	</g>
	<line class="st4" x1="29.3" y1="31.5" x2="43.9" y2="17"/>
	<line class="st4" x1="35.6" y1="31.5" x2="43.8" y2="23.4"/>
	<line class="st4" x1="28.7" y1="25.8" x2="37.6" y2="17"/>
	<g>
		<path class="st6" d="M77.4,17.8c0.6,0,1,0.4,1,1V50c0,0.5-0.5,1-1,1h-5.6c-0.8,0-1.5,0.7-1.5,1.5v8.3l-11.3-9.5
			c-0.3-0.2-0.6-0.4-1-0.4H30.5c-0.6,0-1-0.4-1-1V18.8c0-0.5,0.5-1,1-1H77.4 M77.4,16.3H30.5c-1.4,0-2.5,1.1-2.5,2.5V50
			c0,1.4,1.1,2.5,2.5,2.5h27.6L71.8,64V52.5h5.6c1.4,0,2.5-1.1,2.5-2.5V18.8C79.9,17.4,78.8,16.3,77.4,16.3L77.4,16.3z"/>
	</g>
</g>
<g id="Layer_2">
</g>
</svg>
