<svg xmlns="http://www.w3.org/2000/svg" width="118.946" height="121.208" viewBox="0 0 118.946 121.208">
    <path fill="#dae1e7" d="M25.478 25.089h57.358a2.5 2.5 0 1 0 0-5H27.978V5h77.982a2.5 2.5 0 1 0 0-5H25.478a2.5 2.5 0 0 0-2.5 2.5v20.089a2.5 2.5 0 0 0 2.5 2.5z"/>
    <path fill="#dae1e7" d="M107.044 25.089c6.917 0 12.544-5.628 12.544-12.545S113.961 0 107.044 0a2.5 2.5 0 1 0 0 5c4.16 0 7.544 3.384 7.544 7.544s-3.384 7.545-7.544 7.545a2.5 2.5 0 1 0 0 5z"/>
    <g fill="#dae1e7">
        <path d="M2.5 25.089h105.069s3.881-5 2.5-5H2.5a2.5 2.5 0 1 0 0 5zm112.072-9.909v58.555s.564 2.154 2.439 2.154c1.935.007 2.561-2.154 2.561-2.154V12.68a2.5 2.5 0 0 0-2.5-2.5l-2.5 5z"/>
        <path d="M72.78 116.208H14.006c-2.952 0-5.211-.792-6.713-2.354-2.456-2.554-2.331-6.492-2.33-6.519.002-.042.003-.083.003-.125V22.554a2.5 2.5 0 1 0-5 0v84.611c-.023.757-.051 6.187 3.679 10.107 2.483 2.611 5.97 3.936 10.361 3.936H72.78s1.691-.301 1.811-2.429c.096-1.703-1.811-2.571-1.811-2.571z"/>
    </g>
    <path fill="#dae1e7" d="M24.67 76.139c-4.774 0-8.659-3.885-8.659-8.66s3.885-8.66 8.659-8.66 8.659 3.885 8.659 8.66-3.885 8.66-8.659 8.66zm0-12.321c-2.018 0-3.659 1.642-3.659 3.66s1.642 3.66 3.659 3.66 3.659-1.642 3.659-3.66-1.641-3.66-3.659-3.66zm69.901 57.036c-13.438 0-24.372-10.935-24.372-24.374s10.934-24.373 24.372-24.373c13.44 0 24.375 10.934 24.375 24.373s-10.934 24.374-24.375 24.374zm0-43.748c-10.682 0-19.372 8.69-19.372 19.373s8.69 19.374 19.372 19.374c10.684 0 19.375-8.691 19.375-19.374s-8.691-19.373-19.375-19.373z"/>
    <path fill="#dae1e7" d="M94.571 111.986a2.5 2.5 0 0 1-2.5-2.5V83.474a2.5 2.5 0 1 1 5 0v26.013a2.5 2.5 0 0 1-2.5 2.499z"/>
    <path fill="#dae1e7" d="M81.567 98.981a2.5 2.5 0 0 1 0-5l26.012-.002a2.5 2.5 0 0 1 0 5l-26.012.002z"/>
</svg>
