<svg xmlns="http://www.w3.org/2000/svg" width="118.986" height="120.853" viewBox="0 0 118.986 120.853">
    <path fill="#dae1e7" d="M25.516 25.089h57.358a2.5 2.5 0 1 0 0-5H28.016V5h77.982a2.5 2.5 0 1 0 0-5H25.516a2.5 2.5 0 0 0-2.5 2.5v20.089a2.5 2.5 0 0 0 2.5 2.5z"/>
    <path fill="#dae1e7" d="M107.082 25.089c6.917 0 12.544-5.628 12.544-12.545S113.999 0 107.082 0a2.5 2.5 0 1 0 0 5c4.16 0 7.544 3.384 7.544 7.544s-3.384 7.545-7.544 7.545a2.5 2.5 0 1 0 0 5zm-12.47 95.764c-13.439 0-24.374-10.935-24.374-24.374s10.935-24.373 24.374-24.373 24.374 10.934 24.374 24.373-10.934 24.374-24.374 24.374zm0-43.748c-10.683 0-19.374 8.69-19.374 19.373s8.691 19.374 19.374 19.374 19.374-8.691 19.374-19.374-8.691-19.373-19.374-19.373z"/>
    <path fill="#dae1e7" d="M107.619 98.979H81.605a2.5 2.5 0 1 1 0-5h26.014a2.5 2.5 0 1 1 0 5z"/>
    <g fill="#dae1e7">
        <path d="M2.538 25.089h105.069s3.881-5 2.5-5H2.538a2.5 2.5 0 1 0 0 5zM114.61 15.18v58.555s.564 2.154 2.439 2.154c1.935.007 2.561-2.154 2.561-2.154V12.68a2.5 2.5 0 0 0-2.5-2.5l-2.5 5z"/>
        <path d="M72.818 116.208H14.044c-2.952 0-5.211-.792-6.713-2.354-2.456-2.554-2.331-6.492-2.33-6.519.002-.042.003-.083.003-.125V22.554a2.5 2.5 0 1 0-5 0v84.611c-.023.757-.051 6.187 3.679 10.107 2.483 2.611 5.97 3.936 10.361 3.936h58.774s1.691-.301 1.811-2.429c.096-1.703-1.811-2.571-1.811-2.571z"/>
    </g>
    <path fill="#dae1e7" d="M24.708 76.139c-4.774 0-8.659-3.885-8.659-8.66s3.885-8.66 8.659-8.66 8.659 3.885 8.659 8.66-3.885 8.66-8.659 8.66zm0-12.321c-2.018 0-3.659 1.642-3.659 3.66s1.642 3.66 3.659 3.66 3.659-1.642 3.659-3.66-1.641-3.66-3.659-3.66z"/>
</svg>
